<?xml version="1.0" standalone="no"?>
<!DOCTYPE svg PUBLIC "-//W3C//DTD SVG 20010904//EN"
 "http://www.w3.org/TR/2001/REC-SVG-20010904/DTD/svg10.dtd">
<svg version="1.0" xmlns="http://www.w3.org/2000/svg"
 width="952.000000pt" height="1280.000000pt" viewBox="0 0 952.000000 1280.000000"
 preserveAspectRatio="xMidYMid meet">
<metadata>
Created by potrace 1.15, written by Peter Selinger 2001-2017
</metadata>
<g transform="translate(0.000000,1280.000000) scale(0.100000,-0.100000)"
fill="#000000" stroke="none">
<path d="M3730 12788 c-100 -14 -199 -51 -395 -148 -324 -161 -474 -272 -695
-513 -102 -112 -148 -180 -275 -403 -16 -29 -66 -100 -111 -158 -83 -109 -163
-240 -203 -335 -29 -68 -25 -121 14 -179 59 -89 124 -76 265 53 46 42 97 83
112 91 15 8 62 15 105 17 l78 2 -1 -32 c-2 -38 -63 -142 -104 -177 -19 -15
-48 -27 -78 -31 -77 -10 -117 -23 -140 -48 -30 -32 -78 -167 -107 -301 -13
-61 -49 -212 -79 -336 -30 -124 -67 -281 -81 -350 -35 -165 -86 -351 -145
-535 -27 -82 -65 -206 -84 -275 -19 -69 -58 -186 -86 -260 -81 -211 -110 -299
-103 -318 4 -9 34 -53 68 -97 34 -44 90 -123 125 -175 35 -52 77 -112 93 -132
l30 -38 -13 -99 -13 -98 31 -95 c39 -118 67 -262 87 -443 18 -161 33 -225 82
-350 82 -211 137 -386 177 -563 25 -107 32 -156 61 -397 23 -187 88 -417 169
-600 42 -93 47 -149 15 -165 -11 -7 -54 -14 -94 -17 -70 -6 -75 -4 -131 30
-85 50 -140 66 -309 88 -164 21 -193 28 -231 58 -15 11 -42 23 -63 27 -20 3
-65 15 -100 26 -49 16 -68 18 -87 9 -21 -9 -31 -4 -96 51 -40 33 -95 71 -123
84 -87 41 -106 33 -151 -59 -39 -81 -69 -117 -97 -117 -19 0 -20 16 -1 64 4
10 -2 17 -20 22 -36 9 -96 -24 -125 -68 -13 -21 -32 -38 -41 -38 -10 0 -39 25
-65 55 -51 60 -79 69 -135 40 -27 -14 -30 -13 -57 9 -36 30 -129 61 -247 81
-112 19 -160 19 -201 0 -68 -33 -155 -144 -155 -198 0 -45 71 -111 140 -131
30 -9 75 -30 100 -46 55 -37 95 -38 140 -5 41 30 53 24 89 -41 45 -84 54 -85
237 -32 237 69 208 71 380 -16 82 -41 221 -119 309 -174 192 -119 381 -222
570 -313 125 -59 272 -119 294 -119 5 0 25 12 46 26 38 25 39 25 89 10 28 -8
62 -16 76 -18 22 -3 25 -8 26 -48 1 -25 2 -50 3 -57 0 -7 24 -34 51 -61 54
-53 63 -90 37 -142 -19 -37 -38 -35 -98 10 -29 22 -60 40 -69 40 -8 0 -37 -35
-65 -78 -41 -63 -63 -86 -125 -127 -41 -28 -75 -57 -75 -65 0 -28 50 -23 98 9
25 17 48 31 53 31 26 0 104 66 125 105 13 25 26 45 30 45 11 0 68 -66 77 -90
16 -43 -25 -129 -137 -285 -85 -118 -83 -111 -79 -248 3 -117 2 -122 -17 -119
-84 14 -85 14 -91 -3 -4 -9 -2 -38 4 -63 13 -57 4 -77 -43 -92 -19 -6 -46 -25
-60 -41 -21 -26 -25 -41 -25 -94 0 -80 -3 -82 -144 -94 -119 -10 -175 -34
-220 -94 -65 -85 -91 -213 -52 -256 24 -26 42 -26 86 0 51 30 60 47 60 111 l0
57 39 11 c27 7 50 23 71 50 30 38 34 40 88 40 64 0 154 36 170 67 5 10 13 42
17 71 5 39 17 66 46 105 21 28 39 59 39 68 0 39 11 49 56 49 63 0 67 13 74
225 l5 180 61 72 c33 39 80 108 104 153 57 106 119 163 207 190 114 35 183 23
198 -37 3 -15 40 -105 81 -199 73 -171 101 -266 74 -249 -17 10 -100 187 -100
212 0 23 -45 69 -54 55 -8 -14 23 -116 88 -291 54 -146 72 -226 52 -233 -18
-6 -48 52 -92 178 -48 136 -82 214 -96 214 -14 0 3 -61 52 -190 62 -161 112
-306 138 -396 34 -123 -11 -123 -57 0 -11 29 -31 70 -45 91 -14 21 -26 48 -26
61 0 36 -18 74 -35 74 -20 0 -20 -53 0 -70 8 -7 24 -44 36 -84 11 -39 43 -142
71 -228 28 -87 48 -161 45 -165 -11 -10 -53 34 -71 75 -8 20 -25 63 -37 95
-11 31 -25 57 -30 57 -30 0 18 -170 93 -331 23 -51 38 -95 34 -105 -10 -26
-32 -1 -77 88 -22 43 -44 78 -49 78 -19 0 -10 -39 26 -117 76 -166 96 -226 98
-293 1 -54 -2 -65 -16 -68 -12 -2 -22 6 -29 25 -39 93 -69 153 -78 153 -25 0
-6 -59 60 -186 52 -100 69 -142 65 -160 -7 -26 -34 -32 -54 -12 -18 18 -15 0
19 -98 31 -91 33 -121 13 -235 -3 -22 6 -96 26 -197 35 -181 41 -279 19 -293
-32 -21 -104 20 -155 86 -16 21 -38 78 -56 142 -42 151 -45 269 -23 924 10
300 16 553 12 563 -13 33 -27 4 -27 -57 -1 -134 -30 -337 -50 -337 -8 0 -27
60 -36 120 -6 35 -9 40 -15 25 -4 -11 -8 -40 -9 -65 0 -25 -8 -63 -16 -85 -19
-49 -33 -254 -34 -485 0 -176 -9 -233 -26 -168 -4 18 -9 204 -10 413 -2 508
-2 511 -13 499 -29 -29 -43 -697 -20 -947 16 -173 48 -240 65 -132 3 25 13 49
22 54 13 7 17 47 23 232 14 404 17 425 57 386 15 -16 17 -37 15 -170 -3 -194
-19 -384 -39 -465 -11 -42 -13 -67 -6 -75 13 -16 20 -51 32 -165 6 -52 17
-110 26 -130 18 -45 151 -181 217 -224 55 -35 69 -58 92 -148 9 -36 36 -126
61 -201 48 -148 73 -191 197 -337 75 -88 101 -106 212 -142 95 -31 129 -49
205 -110 80 -64 133 -92 178 -93 41 -1 55 15 77 90 14 49 37 75 52 59 3 -3 7
-46 8 -94 3 -128 11 -135 79 -72 51 47 63 49 72 13 4 -16 15 -43 26 -60 22
-38 213 -189 255 -203 26 -9 321 -33 388 -33 17 0 56 8 88 16 32 9 109 21 170
27 161 16 151 11 202 98 57 98 63 105 105 131 61 37 150 21 150 -28 0 -6 -18
-67 -40 -135 -22 -67 -40 -128 -40 -134 0 -17 45 -25 69 -13 12 7 26 33 37 69
42 144 57 183 83 215 15 19 35 53 45 76 22 48 17 47 227 30 148 -13 189 -23
171 -41 -9 -9 -32 -9 -95 0 -111 16 -152 15 -168 -4 -19 -23 -2 -30 111 -49
52 -9 120 -25 150 -37 30 -11 72 -26 94 -34 21 -8 85 -18 141 -23 93 -7 108
-11 141 -37 63 -50 72 -56 110 -64 50 -11 90 4 103 41 12 36 24 37 45 4 12
-18 25 -25 47 -25 l30 0 -26 37 c-17 26 -22 40 -14 48 16 16 761 11 1064 -8
143 -9 346 -19 450 -23 l190 -6 73 52 c90 63 111 103 112 203 0 78 -13 110
-64 155 -46 40 -78 49 -278 72 -107 12 -183 26 -210 38 -78 35 -207 132 -248
186 -39 52 -57 63 -160 101 -93 33 -184 114 -166 144 4 6 35 11 69 11 67 0
107 8 107 20 0 4 -26 16 -57 26 -60 20 -78 46 -36 52 47 7 88 105 63 151 -14
26 -56 28 -64 3 -9 -26 -44 -62 -61 -62 -8 0 -18 15 -23 33 -11 42 -31 41 -58
-3 -13 -19 -30 -44 -40 -54 -17 -19 -18 -19 -40 10 -63 79 -77 94 -89 94 -25
0 -34 28 -43 136 -7 74 -17 127 -32 161 -27 62 -21 75 46 112 45 25 49 29 48
63 -1 25 -15 59 -45 105 -122 192 -182 299 -290 520 -66 134 -126 271 -135
305 -9 35 -29 106 -46 158 -46 145 -158 559 -165 610 -6 41 -5 44 10 31 9 -7
54 -68 99 -135 45 -66 105 -152 134 -191 66 -89 176 -280 325 -568 137 -263
180 -333 208 -342 12 -3 61 3 109 15 49 12 102 20 118 18 34 -4 47 -26 100
-173 20 -55 80 -192 134 -305 54 -113 119 -257 145 -320 91 -224 139 -289 303
-412 114 -86 201 -128 280 -134 125 -11 152 -23 95 -45 -40 -15 -18 -26 82
-40 189 -25 286 12 441 166 83 82 154 180 154 213 0 38 -155 221 -271 318 -45
38 -107 102 -138 143 -42 56 -72 83 -121 112 -114 66 -136 85 -200 171 -35 45
-98 120 -142 164 l-78 82 0 55 c0 31 -5 68 -10 83 l-11 27 -22 -21 c-29 -27
-47 -13 -47 35 0 90 -62 295 -82 275 -9 -9 -1 -107 18 -215 5 -30 4 -37 -9
-37 -19 0 -48 53 -71 129 -22 76 -20 111 9 151 14 19 25 39 25 45 0 5 -63 73
-141 150 -219 218 -475 490 -560 596 -151 190 -266 382 -454 757 -110 220
-177 383 -383 932 -179 476 -202 544 -288 859 -46 170 -106 304 -179 403 -57
77 -71 83 -171 69 -47 -7 -167 -32 -267 -58 -269 -67 -317 -67 -402 -5 l-37
28 -171 -23 c-233 -32 -628 -97 -771 -127 -67 -14 -137 -36 -163 -50 -47 -27
-73 -33 -73 -17 0 5 -28 51 -61 101 -60 90 -62 94 -71 184 -5 50 -18 125 -28
168 -11 42 -20 83 -20 90 0 8 18 39 40 69 21 30 46 64 55 77 16 22 18 23 43 6
15 -9 76 -55 135 -102 223 -174 258 -184 379 -103 40 27 150 111 243 186 188
151 432 319 690 475 198 119 230 147 239 199 7 44 76 116 122 127 41 10 70
-11 147 -106 38 -47 138 -160 223 -251 86 -91 170 -187 189 -213 34 -48 202
-375 222 -433 25 -73 103 -27 279 166 189 205 192 221 61 270 -158 60 -220 96
-377 216 -85 66 -173 133 -195 149 -49 36 -309 290 -337 329 -11 15 -20 42
-21 59 -2 26 -7 33 -31 39 -31 8 -96 65 -96 84 0 11 212 165 228 165 5 0 22
19 37 41 39 60 244 259 266 259 60 0 -25 -131 -236 -365 -125 -139 -145 -165
-122 -165 76 0 534 504 512 563 -12 30 -107 51 -171 37 -30 -7 -57 -29 -128
-104 -50 -53 -97 -96 -103 -96 -7 0 -13 11 -13 25 0 67 -53 130 -119 141 -64
10 -71 15 -92 57 -12 23 -42 65 -68 92 -27 28 -60 71 -74 97 -32 55 -66 84
-115 98 -21 5 -52 27 -74 51 -46 51 -48 50 -213 -30 -162 -79 -158 -79 -188
-39 -14 18 -32 49 -42 68 -28 57 -56 80 -115 96 -102 28 -109 33 -141 95 -16
32 -29 65 -29 74 0 8 47 67 105 131 103 115 130 157 61 96 -20 -17 -50 -35
-68 -40 -18 -5 -51 -21 -72 -36 -21 -14 -44 -26 -51 -26 -30 0 -105 -115 -105
-163 0 -16 11 -31 38 -48 25 -16 46 -42 64 -81 32 -67 58 -84 146 -94 71 -8
89 -23 103 -85 15 -66 76 -129 125 -129 12 0 57 24 100 54 174 118 208 115
112 -11 -216 -284 -271 -360 -313 -432 -51 -88 -73 -108 -104 -92 -10 6 -63
49 -117 97 -94 82 -263 219 -404 327 l-62 49 6 59 c11 91 93 407 122 466 20
42 38 61 92 96 93 62 214 121 298 146 39 11 78 29 87 39 21 23 22 51 2 58 -36
14 -257 -73 -395 -156 -96 -57 -113 -59 -152 -18 -18 19 -54 63 -80 98 -25 36
-98 124 -162 195 -64 72 -116 134 -116 138 0 12 65 37 96 37 14 0 66 -23 114
-51 140 -80 162 -70 221 108 40 120 57 223 68 408 9 161 6 225 -10 225 -11 0
-16 -27 -24 -120 -9 -109 -61 -405 -84 -479 -23 -74 -44 -101 -81 -101 -34 0
-140 75 -140 99 0 10 23 53 51 95 55 85 79 134 79 166 0 21 0 21 -31 3 -48
-28 -177 -160 -199 -202 -10 -21 -34 -54 -52 -72 -47 -47 -188 -136 -331 -209
l-124 -63 -49 27 c-81 45 -205 137 -202 149 2 7 36 28 75 47 39 20 104 59 144
87 41 28 97 62 125 76 28 14 54 33 58 42 11 30 -22 71 -111 138 -48 36 -125
103 -169 149 l-82 83 9 76 c11 94 45 191 115 329 57 111 114 183 231 292 58
53 102 81 220 140 179 89 254 114 399 129 146 16 248 2 282 -36 12 -14 22 -35
22 -46 0 -10 5 -19 11 -19 14 0 34 52 54 144 34 151 12 270 -94 518 -22 53
-41 110 -41 125 0 30 -11 49 -76 134 -22 30 -62 84 -88 122 -26 37 -59 75 -74
84 -15 10 -55 39 -90 65 -71 54 -124 64 -155 30 -24 -27 -22 -37 28 -107 25
-35 50 -77 56 -95 13 -36 41 -50 105 -50 53 0 112 -22 121 -46 4 -11 -2 -23
-17 -34 -33 -25 -21 -59 33 -93 24 -15 60 -45 80 -65 37 -38 132 -223 143
-279 9 -46 -18 -56 -173 -62 -84 -4 -137 -10 -144 -18 -20 -20 -4 -26 94 -33
52 -4 103 -13 115 -19 24 -13 30 -49 10 -56 -7 -2 -148 -13 -313 -25 -350 -24
-340 -22 -469 -61 -55 -16 -115 -29 -134 -29 -19 0 -46 -8 -60 -18 -15 -11
-56 -34 -91 -52 -72 -39 -155 -109 -177 -151 -22 -43 1 -37 66 17 30 25 63 50
74 56 16 9 18 7 14 -13 -3 -13 -9 -32 -13 -41 -13 -31 14 -20 126 53 60 39
126 78 147 85 51 18 102 18 102 -1 0 -8 -69 -86 -154 -174 -85 -88 -176 -194
-204 -235 -87 -130 -154 -344 -172 -547 -4 -56 -13 -106 -19 -112 -19 -19 -55
27 -107 136 l-49 102 -3 177 c-6 286 12 375 119 594 59 121 67 144 50 144 -19
0 -73 -77 -123 -175 -28 -55 -70 -128 -94 -162 -51 -75 -83 -171 -118 -351
-44 -230 -49 -238 -93 -173 -56 82 -67 134 -71 326 -5 224 1 272 38 327 23 33
30 54 30 93 l-1 50 181 176 c99 97 180 182 180 188 0 7 -11 23 -24 36 -21 21
-29 23 -52 15 -41 -16 -120 -88 -239 -220 -197 -218 -294 -361 -348 -515 -15
-44 -30 -86 -32 -94 -4 -11 -8 -11 -20 -1 -21 18 -19 50 6 77 29 30 14 48 -45
56 -50 7 -96 26 -96 39 0 5 18 56 40 113 49 123 98 203 184 293 82 88 103 119
88 134 -9 9 -37 -12 -111 -85 -54 -53 -101 -97 -105 -97 -15 0 55 79 171 190
212 206 301 275 493 380 52 29 107 61 122 72 82 58 264 122 394 138 84 11 100
19 90 46 -6 15 -18 16 -104 11 -55 -3 -126 -15 -164 -26 -52 -17 -72 -19 -94
-11 -37 14 -107 -1 -233 -51 -105 -41 -121 -45 -121 -29 0 15 85 69 173 110
215 100 481 138 560 80 27 -21 29 -21 48 -5 15 14 29 16 69 11 69 -9 68 14 -2
48 -76 37 -192 51 -310 37 -99 -12 -303 -63 -352 -87 -27 -14 -31 -13 -52 7
-30 28 -30 47 -1 53 44 8 183 35 252 49 39 9 100 18 138 22 37 4 67 11 67 16
0 18 -69 39 -122 38 -29 -1 -82 -6 -118 -11z m-263 -223 c-15 -14 -38 -25 -50
-25 -17 1 -11 7 23 25 57 30 62 30 27 0z m1188 -30 c0 -5 -17 -11 -37 -13 -36
-3 -47 5 -31 22 11 10 68 3 68 -9z m-973 -80 c1 -9 -123 -82 -275 -161 -38
-19 -83 -50 -101 -67 -18 -18 -81 -70 -142 -117 -244 -187 -453 -428 -578
-665 -43 -82 -63 -111 -72 -102 -4 3 8 36 25 73 17 36 31 70 31 75 0 5 -12 9
-26 9 -24 0 -22 3 23 39 62 49 87 78 107 121 9 20 57 83 107 140 50 57 103
122 117 143 15 22 47 56 73 76 26 20 88 68 138 107 49 40 122 91 161 115 39
24 112 71 163 103 158 103 246 142 249 111z m-507 -134 c-3 -6 -14 -11 -23
-11 -15 1 -15 2 2 15 21 16 32 13 21 -4z m-158 -108 c-14 -15 -30 -23 -34 -19
-4 4 5 19 21 32 37 32 48 21 13 -13z m-137 -102 c-12 -24 -69 -65 -77 -57 -7
7 64 76 78 76 6 0 6 -7 -1 -19z m-128 -128 c-10 -16 -71 -109 -137 -208 -66
-99 -149 -233 -185 -298 -36 -64 -83 -149 -105 -189 -48 -86 -71 -101 -63 -40
11 81 119 278 268 487 78 110 158 217 178 238 43 45 71 51 44 10z m738 -42 c0
-11 -58 -61 -71 -61 -12 0 -3 17 24 48 21 22 47 30 47 13z m1548 -199 c6 -19
-67 -84 -91 -80 -33 5 -31 26 7 64 36 36 75 43 84 16z m-186 -67 c2 -5 -26
-13 -62 -17 -191 -22 -325 -58 -480 -131 -42 -20 -89 -38 -105 -42 l-30 -7 42
41 c48 47 67 77 58 92 -9 13 13 39 32 39 10 0 12 -6 8 -22 -6 -18 -4 -20 11
-13 83 34 124 46 206 59 104 16 317 17 320 1z m-2257 -65 c-10 -11 -21 -17
-24 -14 -3 3 3 12 13 20 28 20 32 17 11 -6z m465 -279 c-10 -20 -30 -29 -30
-13 0 4 8 18 17 32 19 27 30 12 13 -19z m50 -156 c-6 -19 -15 -35 -20 -35 -8
0 6 75 18 94 12 20 14 -23 2 -59z m-910 15 c0 -12 -9 -38 -20 -60 -34 -66 -60
-68 -40 -3 23 71 60 110 60 63z m631 -210 c6 0 25 11 41 25 16 14 34 23 39 19
5 -3 48 -64 95 -136 96 -145 231 -292 278 -304 25 -6 33 -3 52 21 17 22 27 26
47 21 13 -3 79 -58 147 -121 74 -70 128 -115 138 -113 13 2 18 18 22 70 3 36
8 69 11 73 4 3 53 -38 110 -91 58 -53 123 -105 147 -115 29 -13 42 -24 42 -38
0 -20 -73 -89 -119 -113 -15 -7 -68 -41 -119 -75 -51 -35 -103 -63 -115 -63
-36 0 -86 36 -92 67 -14 65 -37 94 -147 184 -62 51 -156 124 -209 163 -53 39
-126 94 -163 121 -37 28 -90 64 -119 82 -145 88 -277 199 -277 232 0 20 20 49
84 124 l50 58 23 -45 c13 -25 28 -46 34 -46z m543 -776 c25 -24 20 -72 -8 -85
-25 -12 -66 2 -66 22 0 17 29 67 42 72 7 3 14 6 15 6 1 1 9 -6 17 -15z m-249
-44 c-5 -8 -11 -8 -17 -2 -6 6 -7 16 -3 22 5 8 11 8 17 2 6 -6 7 -16 3 -22z
m-874 -70 c18 0 8 -17 -16 -28 -37 -17 -55 -15 -55 7 0 20 24 32 48 25 8 -2
18 -4 23 -4z m1352 -121 c68 -35 215 -142 307 -223 47 -42 88 -76 93 -76 4 0
7 -13 7 -30 0 -24 -16 -46 -83 -114 -50 -50 -104 -94 -132 -108 -35 -17 -56
-35 -74 -67 -30 -50 -51 -67 -75 -58 -30 12 -17 116 18 139 6 4 27 8 47 8 20
0 42 6 48 13 15 19 -26 56 -71 64 -40 6 -59 -8 -90 -65 -10 -19 -25 -32 -36
-32 -21 0 -66 46 -109 111 l-26 39 22 57 c12 32 26 94 31 138 10 90 30 164 54
200 20 30 17 30 69 4z m-1243 -126 c0 -8 -13 -13 -35 -13 -33 0 -35 2 -35 33
0 19 3 37 7 40 9 9 63 -43 63 -60z m2074 -135 c84 -84 186 -193 226 -242 l73
-89 -26 -47 c-31 -54 -42 -100 -62 -252 -21 -158 -34 -191 -112 -278 -80 -89
-230 -270 -295 -355 -65 -86 -71 -90 -108 -75 -17 7 -88 73 -159 146 -215 223
-261 285 -261 354 0 44 15 60 55 60 123 0 355 157 329 223 -3 8 -35 31 -72 51
-81 45 -176 130 -168 151 3 8 49 47 103 86 125 92 163 128 163 154 0 12 -25
50 -55 85 -30 35 -55 67 -55 72 0 22 193 108 243 108 23 0 56 -27 181 -152z
m-1659 48 c169 -113 406 -312 643 -541 144 -138 163 -185 27 -67 -42 37 -123
106 -179 155 -55 48 -198 164 -317 257 -216 169 -279 223 -279 241 0 19 28 7
105 -45z m207 37 c7 -9 44 -47 83 -83 38 -36 119 -114 180 -175 60 -60 136
-132 167 -158 61 -51 152 -169 146 -189 -2 -6 -85 67 -184 163 -98 96 -235
221 -303 279 -68 58 -138 117 -154 131 -18 15 -27 30 -23 37 11 18 73 15 88
-5z m-316 -119 c175 -110 311 -219 564 -453 91 -84 196 -178 233 -208 65 -52
126 -127 114 -139 -5 -6 -40 23 -168 141 -105 98 -487 414 -662 549 -89 68
-171 133 -181 145 -35 38 6 24 100 -35z m-111 -55 c138 -81 172 -105 163 -115
-19 -18 -348 160 -348 189 0 21 70 -7 185 -74z m-131 -56 c14 -9 -17 -23 -49
-22 -16 0 -39 4 -50 9 -19 8 -19 8 5 18 23 10 73 7 94 -5z m-26 -114 c43 -16
10 -31 -70 -32 -40 0 -83 3 -95 7 -25 8 -31 31 -10 40 17 8 144 -3 175 -15z
m230 -33 c21 -20 5 -39 -27 -31 -38 9 -73 34 -65 47 9 14 73 3 92 -16z m-123
-77 c109 -20 85 -29 -72 -29 -82 0 -172 -3 -198 -6 -42 -6 -47 -5 -43 12 6 35
45 46 153 40 55 -3 127 -11 160 -17z m1337 -66 c8 -10 18 -23 22 -30 8 -14
-45 -76 -98 -115 -74 -54 -102 -27 -61 58 28 57 75 104 104 104 10 0 25 -8 33
-17z m-832 -20 c41 -27 90 -76 90 -90 0 -25 -32 -12 -80 33 -64 59 -70 98 -10
57z m-475 -14 c50 -6 108 -18 130 -26 22 -8 60 -20 84 -27 25 -6 46 -17 49
-24 6 -18 -53 -15 -91 5 -25 13 -69 17 -192 21 -141 4 -170 2 -238 -17 -94
-25 -87 -25 -87 0 0 30 18 59 43 69 31 12 196 12 302 -1z m1445 -124 c17 -20
2 -37 -55 -64 -45 -21 -105 -28 -105 -13 0 12 51 58 85 75 38 20 59 21 75 2z
m-1380 -15 c0 -5 -6 -10 -14 -10 -8 0 -18 5 -21 10 -3 6 3 10 14 10 12 0 21
-4 21 -10z m768 -170 c168 -167 217 -207 263 -215 36 -6 39 -9 39 -39 0 -18
-6 -41 -14 -51 -13 -18 -19 -14 -105 65 -111 102 -391 395 -391 410 0 22 91
-52 208 -170z m-243 63 c105 -90 131 -152 40 -99 -49 29 -155 128 -155 145 0
28 52 7 115 -46z m-819 32 c-22 -17 -66 -20 -66 -6 0 11 23 18 60 20 24 0 24
0 6 -14z m320 -34 c-8 -12 -308 -111 -337 -111 l-24 0 25 20 c62 48 359 129
336 91z m154 -50 c0 -5 -30 -21 -67 -36 -38 -15 -134 -56 -214 -91 -80 -35
-149 -64 -153 -64 -3 0 -6 6 -6 13 0 31 251 137 438 186 1 1 2 -3 2 -8z m3188
-65 c7 -56 -9 -97 -54 -146 -82 -88 -134 -89 -134 -3 0 89 81 186 150 181 30
-3 35 -7 38 -32z m-3062 2 c-21 -12 -164 -61 -211 -72 -23 -6 -27 -5 -18 5 19
19 188 77 228 78 19 0 19 0 1 -11z m279 -115 c32 -31 36 -39 21 -41 -18 -4
-60 29 -77 61 -17 31 15 19 56 -20z m-545 20 c0 -18 -134 -92 -146 -80 -12 12
9 29 70 58 64 30 76 34 76 22z m310 1 c0 -6 -65 -34 -80 -34 -19 0 -10 21 13
30 25 10 67 13 67 4z m499 -88 c74 -72 132 -149 98 -130 -41 24 -195 165 -200
183 -10 40 24 22 102 -53z m2653 37 c10 -9 18 -24 18 -34 0 -21 -72 -164 -96
-190 -30 -34 -144 -37 -144 -5 0 34 74 157 120 200 53 49 73 55 102 29z
m-3332 -23 c-58 -45 -415 -250 -436 -250 -34 0 165 131 323 212 114 59 159 74
113 38z m-300 -29 c0 -16 -111 -91 -135 -91 -20 0 4 26 57 60 63 41 78 47 78
31z m353 -68 c-7 -2 -19 -2 -25 0 -7 3 -2 5 12 5 14 0 19 -2 13 -5z m593 -31
c42 -31 124 -119 124 -133 0 -16 -18 -10 -52 18 -50 40 -138 126 -138 135 0
16 28 7 66 -20z m1286 -22 c18 -16 27 -30 21 -30 -7 0 -27 13 -45 30 -18 16
-27 30 -21 30 7 0 27 -13 45 -30z m1591 21 c13 -5 27 -16 30 -25 13 -32 -74
-235 -118 -276 -13 -12 -41 -24 -63 -27 -41 -6 -49 -1 -90 55 -10 13 -33 27
-51 31 -19 3 -39 14 -44 22 -11 18 -2 69 12 69 5 0 31 -16 56 -36 26 -19 48
-34 49 -32 2 2 31 47 66 101 79 124 98 139 153 118z m-3313 -11 c0 -14 -71
-59 -195 -125 -60 -32 -144 -80 -186 -106 -73 -47 -109 -60 -109 -40 0 27 212
164 374 242 79 39 116 48 116 29z m820 -15 c0 -8 -7 -15 -15 -15 -8 0 -15 7
-15 15 0 8 7 15 15 15 8 0 15 -7 15 -15z m2023 8 c-7 -2 -21 -2 -30 0 -10 3
-4 5 12 5 17 0 24 -2 18 -5z m-114 -50 c38 -25 281 -245 346 -314 61 -66 179
-226 227 -309 30 -51 277 -300 299 -300 8 0 75 -46 151 -103 169 -127 272
-189 373 -227 43 -16 83 -34 88 -39 6 -6 2 -20 -12 -39 -32 -45 -221 -222
-237 -222 -20 0 -81 100 -112 183 -16 43 -39 82 -59 102 -18 18 -33 38 -33 46
0 40 -284 355 -598 664 -293 289 -366 355 -378 343 -3 -3 2 -66 10 -139 20
-171 20 -209 1 -209 -53 0 -98 307 -52 357 9 11 17 24 17 30 0 5 -22 39 -48
74 -65 86 -74 103 -60 117 13 13 41 8 77 -15z m-3091 -16 c-81 -68 -108 -87
-122 -87 -9 0 -16 4 -16 9 0 13 49 51 65 51 7 0 19 7 26 16 13 16 45 32 64 33
6 0 -2 -10 -17 -22z m1022 -12 c13 -14 19 -25 13 -25 -6 0 -18 11 -27 25 -9
14 -15 25 -13 25 2 0 14 -11 27 -25z m996 -14 c69 -46 184 -153 184 -171 0 -7
-15 -1 -32 14 -18 15 -60 44 -93 64 -90 56 -163 132 -126 132 5 0 35 -18 67
-39z m-1198 -70 c81 -71 180 -181 163 -181 -13 0 -271 249 -271 262 0 12 13 3
108 -81z m452 72 c0 -10 -32 -43 -42 -43 -12 0 -10 24 4 38 13 13 38 16 38 5z
m-838 -23 c-12 -10 -84 -53 -160 -95 -75 -41 -184 -109 -241 -150 -58 -41
-113 -75 -123 -75 -25 0 -23 37 2 45 11 4 42 25 68 48 66 57 190 137 297 190
109 54 112 55 150 56 l30 0 -23 -19z m2552 -52 c32 -50 63 -298 37 -298 -15 0
-39 44 -55 101 -40 143 -28 269 18 197z m-635 -62 c50 -47 111 -129 111 -148
0 -5 -9 -4 -20 2 -21 11 -165 172 -182 203 -9 17 -7 17 13 6 13 -7 48 -35 78
-63z m526 6 c0 -46 -19 -44 -23 2 -3 28 0 37 10 34 7 -3 13 -19 13 -36z
m-2361 3 c9 -24 -30 -52 -179 -127 -77 -39 -158 -83 -180 -98 -58 -39 -121
-70 -145 -70 -48 0 -11 43 88 101 90 54 389 209 402 209 5 0 10 -7 14 -15z
m196 -11 c0 -8 -4 -12 -10 -9 -5 3 -10 13 -10 21 0 8 5 12 10 9 6 -3 10 -13
10 -21z m584 4 c-24 -41 -47 -67 -55 -63 -15 10 -10 24 16 50 25 26 51 34 39
13z m96 -47 c0 -5 -25 -42 -56 -83 -31 -40 -74 -106 -96 -145 -42 -76 -66
-104 -53 -62 10 36 101 197 140 252 32 42 65 62 65 38z m526 -24 c21 -18 54
-43 72 -56 36 -25 42 -51 13 -51 -19 0 -148 90 -163 114 -26 39 29 34 78 -7z
m925 -84 c41 -43 87 -95 103 -115 16 -21 34 -38 41 -38 7 0 30 -21 50 -47 21
-27 62 -73 90 -103 29 -30 62 -72 74 -92 l23 -38 -32 0 c-31 0 -32 -2 -27 -29
7 -34 -4 -46 -50 -56 -41 -8 -62 3 -143 78 -36 32 -82 68 -103 78 -21 11 -47
34 -57 52 -19 30 -19 33 -3 45 9 6 25 12 34 12 10 0 25 7 33 16 22 21 43 12
123 -51 128 -103 105 -58 -57 110 -142 148 -219 255 -181 255 4 0 42 -35 82
-77z m-1983 19 c8 -12 10 -22 5 -22 -18 0 -63 41 -63 57 0 14 3 14 22 1 12 -8
28 -24 36 -36z m-220 16 c-3 -7 -49 -31 -104 -53 -115 -47 -272 -130 -363
-192 -64 -43 -101 -54 -101 -30 0 44 258 202 430 263 72 26 144 32 138 12z
m1182 -3 c30 -16 39 -38 20 -50 -14 -9 -56 19 -70 45 -13 25 7 27 50 5z m704
-86 c28 -33 34 -59 13 -59 -26 0 -74 69 -60 84 12 11 21 6 47 -25z m734 -1 c9
-18 41 -57 70 -86 54 -55 65 -89 37 -112 -19 -15 -35 -5 -35 24 0 12 -7 31
-15 42 -13 16 -16 17 -25 4 -5 -8 -10 -33 -10 -55 -1 -87 -31 -117 -48 -47
-17 67 -42 244 -36 253 12 20 46 8 62 -23z m-547 9 c-1 -12 -15 -9 -19 4 -3 6
1 10 8 8 6 -3 11 -8 11 -12z m-1970 -21 c-6 -7 -46 -23 -89 -36 -100 -29 -194
-73 -312 -145 -80 -49 -156 -85 -178 -85 -14 0 48 54 112 99 97 66 160 97 295
142 121 40 193 51 172 25z m1689 -37 c0 -21 -16 -26 -23 -6 -6 17 3 38 14 31
5 -3 9 -14 9 -25z m-424 -29 c6 -19 26 -44 45 -57 19 -13 68 -60 110 -105 55
-60 79 -80 92 -75 30 11 19 37 -45 103 -45 47 -59 67 -51 75 23 23 60 0 91
-53 16 -29 41 -63 56 -75 14 -13 26 -26 26 -30 0 -18 -41 -73 -66 -89 -26 -18
-27 -18 -48 8 -11 14 -36 53 -55 86 -37 67 -70 89 -173 117 -55 15 -88 36 -88
57 0 17 69 80 82 76 7 -3 18 -20 24 -38z m-335 -17 c47 -43 74 -89 58 -99 -25
-15 -148 103 -133 127 10 17 35 8 75 -28z m933 -16 c6 -15 7 -30 3 -33 -12
-12 -37 18 -37 43 0 32 22 25 34 -10z m134 16 c2 -8 -6 -13 -22 -13 -17 0 -26
5 -26 16 0 19 41 16 48 -3z m-1927 -23 c-13 -11 -35 -23 -50 -26 -103 -23
-247 -89 -377 -174 -76 -50 -114 -62 -114 -37 0 19 21 35 130 99 187 109 305
157 390 157 l45 0 -24 -19z m1519 3 c14 -9 31 -25 38 -35 7 -10 20 -18 27 -18
8 0 22 -11 30 -24 14 -20 14 -29 4 -47 -12 -23 -12 -23 -53 24 -23 26 -45 47
-50 47 -17 0 -46 33 -46 52 0 23 18 23 50 1z m181 -34 c34 -37 38 -69 9 -69
-22 0 -60 53 -60 83 0 26 18 21 51 -14z m-1623 -50 c-2 -7 -64 -33 -138 -58
-141 -49 -217 -84 -286 -132 -22 -15 -54 -31 -70 -34 -29 -6 -29 -6 11 30 22
20 71 54 110 75 152 84 386 158 373 119z m833 -106 c86 -80 222 -273 205 -291
-11 -11 -102 99 -265 319 -26 37 9 20 60 -28z m-115 -35 c74 -78 118 -133 183
-227 52 -76 63 -118 37 -140 -18 -15 -37 4 -118 122 -33 49 -87 121 -119 162
-64 79 -91 124 -83 137 13 21 46 3 100 -54z m1135 42 c126 -50 279 -164 279
-209 0 -18 -48 -51 -75 -51 -26 0 -70 26 -158 94 -45 35 -108 79 -139 99 -32
20 -58 43 -58 50 0 41 69 49 151 17z m-1906 -19 c-3 -5 -18 -12 -34 -16 -31
-7 -261 -138 -317 -180 -54 -41 -63 -27 -11 19 55 49 175 123 262 160 60 25
111 34 100 17z m18 -68 c-33 -17 -51 -13 -38 6 3 6 21 11 38 10 l32 0 -32 -16z
m1825 -67 c110 -73 174 -132 170 -155 -3 -12 -16 -16 -58 -16 -49 0 -63 6
-125 47 -88 59 -175 135 -175 153 0 8 8 19 18 24 38 22 73 11 170 -53z m-2583
35 c0 -8 -4 -16 -10 -18 -16 -5 -38 14 -30 26 9 16 40 9 40 -8z m1480 -91 c61
-76 146 -203 164 -248 7 -18 10 -39 7 -48 -10 -26 -46 4 -84 71 -18 32 -71
109 -117 172 -47 63 -85 124 -85 134 0 20 1 20 31 2 17 -10 55 -47 84 -83z
m-855 39 c-64 -56 -185 -139 -204 -139 -31 0 -15 20 57 73 139 103 239 147
147 66z m1604 5 c22 -9 10 -24 -20 -24 -25 0 -33 15 -11 23 6 3 13 6 14 6 1 1
8 -2 17 -5z m200 -88 c88 -59 169 -133 163 -150 -2 -6 -18 -20 -36 -31 -19
-11 -51 -37 -72 -57 -21 -21 -48 -38 -59 -38 -12 0 -47 18 -77 40 -53 37 -84
50 -82 33 0 -5 19 -21 41 -38 23 -16 47 -39 55 -51 12 -18 11 -24 -8 -47 -24
-32 -47 -34 -97 -8 -63 33 -162 147 -162 187 0 21 23 37 46 33 26 -4 33 5 36
44 3 42 3 42 43 43 70 3 67 1 60 44 -4 21 -3 44 0 51 13 20 66 1 149 -55z
m-1067 -13 c16 -21 52 -72 80 -113 98 -146 125 -225 78 -225 -15 0 -31 21 -62
83 -24 45 -68 119 -98 164 -53 79 -69 128 -42 128 8 0 27 -17 44 -37z m763 22
c0 -8 -7 -15 -15 -15 -16 0 -20 12 -8 23 11 12 23 8 23 -8z m-1461 -17 c-18
-34 -140 -158 -156 -158 -20 0 -16 34 9 65 27 35 129 115 146 115 10 0 10 -5
1 -22z m41 -90 c0 -13 -66 -123 -86 -143 -36 -35 -46 2 -17 62 32 69 103 125
103 81z m579 -14 c25 -32 26 -43 5 -51 -21 -8 -44 21 -44 54 0 30 14 29 39 -3z
m619 -36 c-6 -18 -28 -21 -28 -4 0 9 7 16 16 16 9 0 14 -5 12 -12z m-1132 -40
c-8 -50 -55 -150 -73 -156 -31 -9 7 135 48 185 22 26 32 14 25 -29z m494 -139
c61 -160 73 -251 34 -266 -21 -8 -30 9 -37 66 -3 25 -22 97 -41 159 -20 63
-36 128 -36 145 l1 32 23 -27 c13 -15 38 -64 56 -109z m-156 54 c2 -61 -19
-55 -22 7 -2 43 -1 52 9 43 7 -7 13 -29 13 -50z m267 5 c36 -51 79 -132 79
-151 0 -8 -9 -22 -19 -31 -18 -16 -20 -16 -35 6 -9 13 -30 58 -46 100 -47 120
-37 155 21 76z m-406 -30 c7 -45 6 -48 -14 -48 -29 0 -36 23 -22 72 15 48 27
40 36 -24z m1102 28 c15 -13 61 -44 101 -70 39 -25 72 -53 72 -61 0 -8 -18
-26 -40 -40 -21 -13 -44 -34 -50 -45 -17 -32 -53 -25 -94 20 -20 22 -36 43
-36 48 0 4 9 18 19 32 19 24 19 25 0 72 -30 76 -23 87 28 44z m-1237 -71 c0
-28 -24 -60 -38 -51 -16 10 -15 79 0 94 10 10 15 9 25 -5 7 -9 13 -26 13 -38z
m1105 35 c10 -16 -16 -43 -28 -31 -11 11 -2 41 12 41 5 0 13 -5 16 -10z m-305
-109 c0 -6 -5 -13 -10 -16 -15 -9 -43 3 -35 15 8 13 45 13 45 1z m278 -3 c18
-18 14 -38 -7 -38 -23 0 -54 28 -46 41 9 13 39 11 53 -3z m-178 -57 c-1 -17
-20 -33 -34 -28 -19 8 -21 38 -4 55 10 10 15 9 25 -5 7 -9 13 -19 13 -22z
m-694 -134 c6 -104 -6 -103 -31 4 -16 69 -19 131 -8 143 15 15 33 -56 39 -147z
m162 30 c4 -78 1 -96 -13 -110 -20 -20 -41 -22 -48 -4 -7 19 12 187 25 210 19
35 32 0 36 -96z m855 51 c16 -22 18 -30 8 -42 -22 -27 -81 10 -81 51 0 20 4
24 27 21 14 -2 35 -15 46 -30z m-83 -83 c10 -12 9 -16 -4 -21 -18 -7 -49 13
-40 27 8 14 30 11 44 -6z m1514 -451 c0 -69 -24 -225 -39 -261 -13 -31 -17
-34 -31 -22 -33 27 0 296 38 320 23 15 33 3 32 -37z m-149 -56 c-18 -183 -33
-246 -56 -232 -23 14 3 246 32 280 23 28 30 14 24 -48z m-885 18 c0 -8 -20
-62 -45 -121 -130 -311 -218 -680 -290 -1215 -40 -298 -61 -430 -71 -439 -11
-10 6 168 22 239 8 36 26 170 39 297 53 506 136 882 249 1128 45 98 96 157 96
111z m130 0 c0 -7 -40 -108 -90 -224 -49 -116 -92 -223 -96 -239 -14 -59 -48
-68 -37 -10 17 91 128 367 180 450 24 38 43 48 43 23z m605 -98 c-25 -141 -54
-223 -74 -203 -11 11 19 209 39 260 35 90 55 57 35 -57z m-853 66 c-10 -59
-162 -249 -170 -212 -5 25 66 155 110 201 38 40 66 45 60 11z m1274 2 c11 -44
0 -254 -14 -268 -25 -25 -33 13 -29 137 4 118 11 155 28 155 5 0 11 -11 15
-24z m-1442 -18 c-3 -13 -23 -57 -44 -98 -20 -41 -61 -133 -90 -205 -131 -324
-191 -371 -89 -70 46 135 126 311 165 362 30 39 70 46 58 11z m886 -58 c0 -25
-7 -91 -14 -148 -14 -108 -31 -142 -69 -142 -19 0 -20 5 -13 73 3 39 14 111
25 160 27 130 71 165 71 57z m-1925 40 c-3 -5 -13 -10 -21 -10 -8 0 -12 5 -9
10 3 6 13 10 21 10 8 0 12 -4 9 -10z m885 1 c0 -5 -14 -35 -30 -66 -32 -60
-69 -174 -145 -445 -72 -257 -143 -425 -172 -407 -18 11 15 146 121 492 108
356 145 435 203 435 13 0 23 -4 23 -9z m874 -97 c-1 -78 -16 -130 -35 -119
-12 8 -11 121 2 168 17 64 34 40 33 -49z m-124 47 c0 -27 -30 -55 -43 -42 -7
7 -7 18 1 36 14 29 42 34 42 6z m-933 -6 c3 -9 -8 -51 -25 -93 -61 -158 -114
-329 -202 -652 -99 -362 -145 -491 -170 -475 -9 6 -6 23 43 200 19 72 54 211
77 310 63 267 198 671 236 710 20 19 33 19 41 0z m-1167 -44 c77 -8 50 -9
-145 -7 -227 2 -275 7 -275 26 0 18 46 16 420 -19z m936 -7 c-4 -15 -51 -133
-105 -263 -108 -260 -178 -445 -281 -741 -75 -216 -96 -270 -198 -510 -38 -91
-84 -200 -102 -242 -29 -72 -50 -93 -65 -68 -6 10 55 172 123 326 52 118 140
355 297 799 81 231 151 410 195 500 83 171 155 277 136 199z m88 -29 c-9 -14
-20 -25 -25 -25 -5 0 -2 11 7 25 9 14 20 25 25 25 5 0 2 -11 -7 -25z m-519
-55 c-56 -22 -401 -50 -620 -50 -171 0 -225 7 -225 26 0 8 1 15 3 15 1 1 54 5
117 9 165 10 749 10 725 0z m288 -6 c4 -4 -2 -19 -13 -33 -20 -29 -212 -409
-255 -507 -36 -80 -134 -326 -191 -476 -70 -187 -222 -479 -269 -518 -25 -21
-17 -2 50 121 36 65 65 121 65 124 0 3 28 65 63 138 35 72 70 155 79 182 16
48 87 223 198 485 29 69 88 198 131 287 86 179 117 221 142 197z m163 -106
c-19 -51 -76 -244 -126 -428 -141 -518 -226 -784 -284 -896 -22 -44 -25 -46
-26 -22 -1 59 180 713 290 1053 67 205 128 355 156 387 30 33 27 4 -10 -94z
m2104 43 c0 -5 3 -23 6 -40 5 -25 3 -31 -10 -31 -21 0 -37 39 -24 63 9 18 28
24 28 8z m-2941 -51 c-44 -26 -489 -44 -489 -20 0 6 1 11 3 11 3 2 341 15 427
17 49 1 70 -2 59 -8z m460 -117 c-28 -54 -60 -107 -69 -118 -10 -11 -20 -29
-22 -39 -1 -11 -9 -21 -17 -24 -23 -8 -4 44 50 138 27 47 49 91 49 97 0 6 12
26 27 44 48 57 39 8 -18 -98z m-565 28 c8 -13 -8 -17 -137 -37 -110 -16 -155
-15 -143 5 13 20 269 50 280 32z m-816 -29 c2 -7 -3 -12 -12 -12 -9 0 -16 7
-16 16 0 17 22 14 28 -4z m1011 -95 c-5 -21 -14 -35 -20 -32 -13 9 -11 59 3
73 20 20 28 -1 17 -41z m1567 -1 c-7 -62 -14 -86 -27 -86 -9 0 -4 35 12 103
14 55 23 45 15 -17z m-1801 14 c-63 -29 -157 -55 -239 -66 -39 -6 -48 -4 -44
7 8 26 220 87 303 87 l40 0 -60 -28z m-565 -65 c10 -12 9 -16 -4 -21 -9 -3
-23 -3 -32 0 -13 5 -14 9 -4 21 7 8 16 15 20 15 4 0 13 -7 20 -15z m2236 -128
c-41 -167 -69 -342 -116 -742 -45 -389 -78 -625 -106 -775 -51 -272 -56 -296
-69 -325 -13 -29 -13 -29 -14 -5 -1 14 8 80 19 148 36 222 50 323 105 752 60
469 130 879 172 1010 37 113 43 72 9 -63z m-1726 84 c0 -5 -23 -14 -50 -20
-72 -16 -81 -13 -35 8 43 21 85 27 85 12z m-255 -60 c8 -13 -23 -41 -46 -41
-25 0 -24 15 3 34 26 18 35 20 43 7z m-164 -21 c32 -17 24 -40 -15 -40 -39 0
-62 20 -44 38 15 15 33 15 59 2z m2229 -21 c0 -5 -4 -9 -10 -9 -5 0 -10 7 -10
16 0 8 5 12 10 9 6 -3 10 -10 10 -16z m-1835 0 c4 -5 -1 -19 -10 -29 -21 -23
-127 -60 -169 -60 l-31 1 30 24 c16 13 59 36 95 49 76 29 77 29 85 15z m516
-27 c-13 -45 -61 -132 -72 -132 -17 0 -2 48 34 108 34 57 50 67 38 24z m2814
-52 c8 -16 15 -43 15 -61 0 -26 -2 -29 -14 -19 -19 15 -39 76 -32 95 8 21 14
19 31 -15z m-2020 -59 c-27 -55 -45 -72 -45 -44 0 22 46 93 61 93 5 0 -2 -22
-16 -49z m-1637 18 c4 -21 -26 -33 -44 -18 -7 6 -10 17 -7 25 7 20 47 14 51
-7z m220 -26 c-5 -26 -124 -103 -160 -103 -62 0 -4 62 97 103 52 21 67 21 63
0z m-2571 -117 c-4 -9 -11 -16 -16 -16 -13 0 -24 37 -15 51 10 16 38 -16 31
-35z m2296 -37 c6 -9 7 -24 3 -34 -6 -17 -8 -16 -31 5 -14 13 -25 30 -25 37 0
19 40 13 53 -8z m521 -32 c-16 -23 -38 -44 -49 -46 -18 -3 -18 -2 -1 25 20 32
68 76 75 68 2 -2 -9 -23 -25 -47z m3304 -28 c-2 -19 -7 -33 -13 -32 -12 3 -19
49 -10 71 10 26 27 -2 23 -39z m-5081 9 c18 -15 6 -28 -26 -28 -31 0 -57 23
-46 40 8 13 52 5 72 -12z m-348 -16 c49 -19 66 -42 30 -42 -28 0 -161 39 -173
51 -17 16 97 9 143 -9z m529 -28 c34 -14 35 -17 19 -28 -18 -14 -63 -10 -73 6
-6 10 2 38 11 38 3 0 22 -7 43 -16z m1183 -14 c-43 -37 -171 -112 -182 -108
-13 4 78 76 137 107 50 27 78 28 45 1z m1719 -101 c-40 -376 -109 -831 -141
-934 -18 -58 -39 -93 -39 -65 0 18 129 900 141 960 13 68 39 153 46 147 2 -3
-1 -51 -7 -108z m-2670 46 c0 -16 -42 -30 -65 -21 -8 3 -12 12 -9 21 8 20 74
21 74 0z m1427 -77 c-38 -78 -90 -148 -102 -136 -4 4 5 29 20 55 46 78 106
165 112 159 3 -2 -11 -38 -30 -78z m-1239 66 c30 -8 28 -20 -4 -28 -30 -8 -84
1 -84 14 0 16 51 23 88 14z m-810 -41 c-10 -2 -26 -2 -35 0 -10 3 -2 5 17 5
19 0 27 -2 18 -5z m1132 -8 c0 -8 -7 -15 -15 -15 -8 0 -15 7 -15 15 0 8 7 15
15 15 8 0 15 -7 15 -15z m440 -3 c-13 -9 -53 -38 -87 -64 -61 -47 -83 -57 -83
-39 0 13 77 74 125 99 49 26 81 28 45 4z m-884 -46 c18 -14 18 -15 -6 -21 -30
-7 -84 11 -75 25 9 15 58 12 81 -4z m1054 -46 c0 -9 -31 -30 -44 -30 -12 0 -6
28 7 33 20 9 37 8 37 -3z m2506 -11 c62 -16 97 -54 168 -183 93 -170 110 -230
160 -587 61 -427 64 -455 76 -609 12 -162 54 -487 80 -625 10 -55 22 -127 25
-160 4 -33 26 -132 50 -220 24 -88 67 -245 95 -350 29 -104 76 -262 107 -350
30 -88 68 -203 84 -255 17 -52 40 -115 52 -140 l22 -45 68 3 67 2 0 -60 c0
-34 8 -84 19 -116 11 -30 22 -74 25 -97 3 -23 13 -101 22 -173 15 -114 15
-154 5 -295 -14 -206 -21 -233 -64 -249 -55 -20 -317 -24 -461 -6 -138 16
-166 27 -123 47 21 9 58 10 165 1 170 -15 285 -15 334 -2 l37 11 -60 61 -60
61 -189 6 c-128 5 -194 11 -202 19 -23 23 9 33 141 43 73 5 142 14 154 20 20
11 20 12 2 25 -10 8 -28 14 -39 14 -12 0 -87 7 -169 15 -112 11 -206 29 -393
75 -280 69 -302 77 -355 125 -43 39 -99 69 -145 79 -27 6 -40 0 -96 -42 l-65
-49 -160 42 c-88 24 -209 57 -267 75 -126 38 -148 36 -176 -20 l-21 -40 -160
82 c-154 80 -163 83 -227 83 l-67 0 -20 41 c-11 23 -40 64 -65 90 -54 59 -141
176 -165 223 -17 33 -17 35 1 48 10 7 26 13 36 13 10 0 18 3 18 6 0 4 -40 49
-90 101 -92 96 -112 137 -72 149 57 18 63 23 52 44 -6 11 -28 31 -49 45 -27
17 -48 43 -70 86 -35 71 -37 83 -16 134 15 35 15 38 -9 79 -51 87 -97 188 -92
201 2 7 15 15 28 17 33 4 35 42 3 90 -52 78 -57 130 -62 658 -4 374 -2 502 8
560 7 41 13 100 13 130 1 48 -2 55 -20 58 -30 4 -44 -19 -54 -89 -5 -34 -13
-66 -19 -72 -15 -15 -32 28 -38 102 -5 63 -4 69 18 85 33 23 82 20 137 -8 26
-13 158 -62 293 -109 267 -94 435 -157 542 -206 76 -34 272 -101 355 -121 42
-10 55 -10 68 1 27 23 54 87 58 141 2 29 11 103 20 163 13 97 76 599 122 970
9 71 20 137 25 147 6 12 25 18 62 21 93 8 476 -2 523 -14z m-2167 -39 c-13
-16 -25 -28 -27 -25 -7 7 27 55 39 55 5 0 0 -13 -12 -30z m-1899 -6 c0 -8 -4
-12 -10 -9 -5 3 -10 13 -10 21 0 8 5 12 10 9 6 -3 10 -13 10 -21z m1340 1 c0
-16 -46 -32 -58 -20 -8 8 26 35 45 35 7 0 13 -7 13 -15z m1646 -17 c-3 -18
-15 -112 -26 -208 -32 -277 -76 -499 -110 -550 -8 -13 -10 -13 -10 1 0 40 109
665 131 752 12 46 23 49 15 5z m-1531 -39 c-8 -12 -45 -12 -45 0 0 10 30 20
43 14 4 -3 5 -9 2 -14z m251 -45 c-42 -62 -114 -144 -127 -144 -18 0 -8 24 28
69 59 73 126 142 131 136 3 -2 -12 -30 -32 -61z m-144 29 c-15 -25 -102 -109
-102 -97 0 13 101 126 107 120 3 -2 0 -13 -5 -23z m3638 3 c5 -14 10 -42 12
-63 3 -32 0 -38 -16 -38 -15 0 -22 12 -32 55 -7 30 -10 58 -8 62 10 16 35 7
44 -16z m-3403 -119 c-35 -62 -82 -115 -93 -105 -8 9 55 118 90 156 43 46 44
23 3 -51z m-967 48 c44 -23 38 -39 -11 -32 -45 6 -65 19 -55 36 10 15 32 14
66 -4z m-40 -88 c0 -13 -30 -47 -42 -47 -12 0 -10 44 3 57 13 13 39 6 39 -10z
m1683 -2 c4 -8 2 -17 -3 -20 -6 -4 -10 3 -10 14 0 25 6 27 13 6z m2830 -36
c10 -49 -5 -103 -26 -97 -13 5 -23 109 -13 135 11 27 31 7 39 -38z m-3093 37
c0 -14 -21 -58 -26 -54 -8 8 7 58 17 58 5 0 9 -2 9 -4z m-260 -93 c-1 -18 -18
-35 -24 -24 -4 6 -4 16 -1 21 7 12 25 13 25 3z m-1032 -31 c2 -7 -6 -12 -17
-12 -21 0 -27 11 -14 24 9 9 26 2 31 -12z m1002 -37 c0 -8 -7 -15 -15 -15 -16
0 -20 12 -8 23 11 12 23 8 23 -8z m1210 -175 c-31 -219 -57 -367 -69 -387 -9
-16 -10 -15 -11 8 0 49 61 454 77 509 25 85 26 36 3 -130z m-297 136 c7 -18
-10 -83 -23 -91 -6 -4 -10 8 -10 27 0 63 20 100 33 64z m2567 -21 c0 -8 -4
-15 -10 -15 -5 0 -10 7 -10 15 0 8 5 15 10 15 6 0 10 -7 10 -15z m-3190 -84
c0 -20 -17 -37 -27 -28 -7 8 7 47 18 47 5 0 9 -9 9 -19z m560 -6 c0 -3 -9 -18
-19 -33 -11 -15 -22 -45 -26 -67 -7 -43 -33 -100 -42 -91 -7 7 35 145 53 174
13 20 34 30 34 17z m-290 -136 c0 -5 -4 -9 -10 -9 -5 0 -10 7 -10 16 0 8 5 12
10 9 6 -3 10 -10 10 -16z m-1422 -86 c5 -17 -26 -29 -40 -15 -6 6 -7 15 -3 22
9 14 37 9 43 -7z m4232 -41 c0 -26 -25 -5 -28 24 -2 28 -2 28 13 10 8 -11 15
-26 15 -34z m322 -92 c2 -17 -2 -26 -14 -28 -22 -4 -41 33 -33 66 6 25 7 25
25 6 10 -10 20 -30 22 -44z m-4077 -30 c53 -104 133 -335 121 -348 -12 -12
-145 299 -161 377 -10 46 9 33 40 -29z m104 -15 c22 -58 27 -100 12 -91 -15
10 -51 95 -51 121 0 42 17 28 39 -30z m3771 -40 c10 -12 10 -19 2 -27 -13 -13
-42 6 -42 28 0 19 24 18 40 -1z m-3634 -44 c-10 -16 -23 -14 -30 5 -9 25 4 38
21 21 9 -8 12 -20 9 -26z m3711 -108 c-3 -10 -5 -4 -5 12 0 17 2 24 5 18 2 -7
2 -21 0 -30z m210 -45 c-3 -8 -6 -5 -6 6 -1 11 2 17 5 13 3 -3 4 -12 1 -19z
m-69 -96 c5 -56 -12 -78 -35 -47 -16 23 -17 69 -2 97 16 29 31 9 37 -50z
m-3770 -8 c4 -47 -14 -36 -24 15 -6 26 -4 33 7 29 8 -3 15 -21 17 -44z m3965
-39 c1 -15 -3 -30 -10 -32 -13 -5 -37 62 -28 78 11 17 35 -12 38 -46z m-339
28 c4 -9 3 -20 -2 -25 -11 -11 -36 17 -27 32 9 15 22 12 29 -7z m234 -99 c-2
-27 -7 -49 -13 -49 -11 0 -19 79 -10 103 11 30 26 -5 23 -54z m-3890 3 c16
-19 26 -93 14 -101 -15 -9 -42 46 -42 84 0 32 11 38 28 17z m-162 -104 c4 -13
3 -35 0 -50 -6 -22 -9 -24 -21 -12 -13 13 -46 119 -45 144 1 16 60 -57 66 -82z
m4283 61 c25 -31 27 -64 6 -64 -16 0 -55 55 -55 78 0 21 28 13 49 -14z m-99
-73 c14 -74 13 -101 -4 -101 -28 0 -46 42 -46 106 0 33 3 64 7 68 13 13 33
-20 43 -73z m-241 31 c11 -21 -2 -48 -18 -38 -14 9 -15 56 -1 56 5 0 14 -8 19
-18z m375 -105 c13 -13 28 -47 35 -78 19 -83 31 -109 52 -109 23 0 59 -34 59
-56 0 -12 -10 -10 -50 12 -104 56 -169 135 -170 205 0 50 37 63 74 26z m-244
-11 c15 -20 9 -61 -10 -61 -10 0 -16 12 -18 38 -3 39 7 47 28 23z m-3898 -100
c28 -56 27 -72 -2 -56 -14 7 -40 76 -40 104 0 21 20 -2 42 -48z m-192 -87 c0
-10 -4 -19 -8 -19 -12 0 -42 67 -34 75 10 9 42 -34 42 -56z m4247 -3 c-2 -6
-12 -11 -23 -11 -15 0 -20 8 -22 40 l-2 40 25 -29 c14 -15 24 -33 22 -40z
m320 32 c22 -20 32 -68 15 -68 -22 0 -68 71 -55 84 10 10 15 7 40 -16z m-4357
-145 c0 -24 -30 -13 -45 17 -27 52 -19 68 15 30 16 -19 29 -41 30 -47z m4169
10 c34 -42 42 -87 14 -81 -20 4 -83 83 -83 104 0 27 39 14 69 -23z m230 -24
c33 -33 40 -69 17 -88 -17 -15 -38 4 -67 60 -32 64 -3 81 50 28z m97 -7 c33
-23 60 -102 35 -102 -14 0 -48 52 -56 83 -7 27 0 33 21 19z m-4720 -66 c21
-33 15 -71 -11 -71 -17 0 -20 8 -23 48 -3 52 9 61 34 23z m204 -79 c30 -61 37
-92 21 -101 -19 -12 -101 120 -101 165 0 50 38 20 80 -64z m4669 -13 c17 -38
6 -42 -14 -5 -8 17 -12 31 -7 31 5 0 14 -12 21 -26z m-4783 -89 c3 -20 13 -37
24 -40 28 -9 45 -34 32 -47 -18 -18 -82 53 -82 91 0 42 18 39 26 -4z m4580 0
c17 -41 18 -91 3 -101 -17 -10 -28 8 -38 61 -15 78 8 104 35 40z m241 -21 c8
-21 -13 -42 -28 -27 -13 13 -5 43 11 43 6 0 13 -7 17 -16z m-4927 -43 c13 -25
13 -51 0 -51 -14 0 -43 48 -35 60 10 16 23 12 35 -9z m3730 -59 c12 -45 13
-72 1 -72 -9 0 -31 75 -31 105 0 27 19 6 30 -33z m848 -5 c2 -28 -1 -37 -12
-37 -21 0 -39 36 -31 61 11 34 40 19 43 -24z m220 16 c-5 -25 -28 -28 -28 -4
0 12 6 21 16 21 9 0 14 -7 12 -17z m-4538 -98 c0 -9 -7 -18 -16 -22 -25 -9
-55 29 -61 78 l-5 44 41 -42 c23 -23 41 -49 41 -58z m-165 -10 c0 -10 -6 -20
-12 -22 -8 -3 -13 5 -13 22 0 17 5 25 13 23 6 -3 12 -13 12 -23z m4380 5 c7
-21 0 -40 -15 -40 -12 0 -23 37 -15 50 10 16 23 12 30 -10z m-4480 -41 c8 -14
11 -29 8 -33 -15 -14 -32 -4 -47 29 -31 64 6 68 39 4z m4969 -50 c-25 -29
-163 -119 -181 -119 -8 0 -13 6 -11 13 8 23 195 143 207 132 2 -3 -4 -15 -15
-26z m-4739 -84 c30 -29 31 -37 6 -59 -17 -16 -20 -16 -35 -1 -18 18 -22 85
-6 85 6 0 22 -11 35 -25z m4825 -9 c0 -35 -200 -156 -234 -143 -25 10 -19 26
15 45 17 9 66 38 108 64 79 48 111 58 111 34z m-5056 -58 c8 -31 8 -83 -1 -91
-13 -13 -33 16 -33 48 0 60 22 87 34 43z m3840 -14 c9 -3 16 -14 16 -24 0 -10
-7 -21 -16 -24 -29 -11 -90 -6 -110 9 -19 15 -19 15 0 30 20 15 81 20 110 9z
m1191 -79 c-40 -33 -70 -33 -32 0 15 14 36 25 45 25 13 -1 9 -7 -13 -25z
m-4675 -36 c0 -11 -4 -19 -9 -19 -10 0 -21 24 -21 47 0 13 3 13 15 3 8 -7 15
-21 15 -31z m-250 -110 c0 -10 -4 -20 -9 -23 -11 -7 -21 18 -21 52 1 26 1 26
15 8 8 -11 15 -28 15 -37z m-107 -63 c-3 -14 -9 -23 -14 -20 -11 6 -12 78 -2
88 11 10 22 -37 16 -68z m392 -13 c43 -43 83 -143 57 -143 -25 0 -119 141
-106 161 9 15 20 10 49 -18z m4615 18 c0 -15 -51 -51 -71 -51 -26 0 -24 15 7
39 27 22 64 28 64 12z m-4812 -35 c3 -12 -1 -17 -10 -14 -7 3 -15 13 -16 22
-3 12 1 17 10 14 7 -3 15 -13 16 -22z m5017 -12 c-39 -30 -175 -94 -201 -94
-34 0 -27 19 16 44 47 28 150 65 180 65 25 0 25 0 5 -15z m-1418 -20 c4 -11
-1 -22 -12 -30 -26 -19 -45 -17 -45 4 0 37 45 57 57 26z m-3516 -65 c11 -23
27 -71 34 -107 22 -102 5 -98 -36 8 -21 55 -37 140 -26 140 4 0 16 -18 28 -41z
m3759 -15 c0 -13 -4 -24 -9 -24 -11 0 -21 25 -21 52 0 17 3 18 15 8 8 -7 15
-23 15 -36z m1270 32 c-26 -24 -213 -116 -237 -116 -56 0 -3 40 126 96 81 36
138 46 111 20z m-1650 -27 c0 -12 -7 -19 -20 -19 -22 0 -26 20 -8 38 15 15 28
6 28 -19z m1830 2 c0 -14 -21 -26 -95 -55 -38 -15 -109 -49 -156 -77 -92 -52
-109 -58 -109 -35 0 25 181 132 275 161 48 16 85 18 85 6z m-5 -131 c-24 -26
-146 -87 -191 -96 -51 -9 -63 8 -24 36 43 31 168 79 204 80 29 0 29 0 11 -20z
m-4996 -49 c22 -31 101 -197 101 -212 0 -24 -31 -4 -58 39 -36 55 -92 171 -92
190 0 22 28 13 49 -17z m5181 20 c0 -12 -21 -27 -50 -36 -14 -4 -69 -27 -122
-51 -124 -56 -202 -61 -130 -7 84 62 302 130 302 94z m-1690 -71 c0 -14 -55
-40 -85 -40 -33 0 -32 16 3 34 31 17 82 21 82 6z m1734 -17 c-55 -42 -210
-108 -219 -94 -7 12 22 35 85 66 95 48 186 67 134 28z m85 -75 c-60 -50 -159
-93 -159 -70 0 11 100 75 141 91 35 13 46 1 18 -21z m-1729 7 c11 -13 3 -19
-51 -44 -102 -46 -255 -91 -307 -91 l-47 1 36 19 c19 10 65 28 100 40 36 11
101 36 145 55 88 39 106 42 124 20z m1810 -64 c0 -9 -61 -51 -74 -51 -14 0 -5
40 12 49 21 13 62 14 62 2z m-5410 -83 c35 -81 3 -75 -47 9 -29 51 -26 88 6
59 11 -10 29 -40 41 -68z m3620 23 c0 -15 -22 -25 -122 -54 -151 -44 -208 -57
-208 -47 0 17 257 119 303 120 20 0 27 -5 27 -19z m-3782 -70 c17 -30 21 -42
11 -39 -15 5 -59 65 -59 80 0 21 24 0 48 -41z m5677 9 c-9 -14 -81 -50 -100
-50 -26 0 -6 20 39 41 46 21 70 24 61 9z m-658 -72 c-3 -7 -5 -2 -5 12 0 14 2
19 5 13 2 -7 2 -19 0 -25z m746 15 c-7 -2 -19 -2 -25 0 -7 3 -2 5 12 5 14 0
19 -2 13 -5z m-623 -52 c-6 -12 -15 -19 -21 -16 -13 8 -11 29 3 43 18 18 32
-2 18 -27z m-5451 -16 l0 -20 -9 20 c-5 11 -9 27 -9 35 -1 13 0 13 9 0 5 -8 9
-24 9 -35z m5991 40 c0 -5 -155 -85 -165 -85 -15 0 -1 21 27 41 36 26 138 58
138 44z m-5844 -71 c46 -78 190 -261 278 -354 85 -89 99 -112 98 -166 -1 -51
14 -87 53 -123 31 -29 28 -45 -10 -49 -48 -6 -111 26 -155 77 -133 160 -310
525 -310 640 0 23 2 41 4 41 2 0 21 -30 42 -66z m5496 4 c-28 -29 -54 -49 -58
-45 -4 4 16 30 45 58 69 66 81 54 13 -13z m495 15 c9 -27 -133 -150 -193 -167
-11 -3 -28 0 -39 8 -42 31 25 107 134 153 59 24 92 26 98 6z m-5379 -32 c3 -8
-1 -12 -9 -9 -7 2 -15 10 -17 17 -3 8 1 12 9 9 7 -2 15 -10 17 -17z m-80 -27
c34 -26 35 -44 2 -44 -21 0 -90 56 -90 72 0 16 51 -1 88 -28z m3502 2 c0 -25
-32 -56 -57 -56 -21 0 -15 29 12 55 31 32 45 32 45 1z m-130 -4 c0 -5 -9 -17
-20 -27 -22 -20 -26 -14 -10 16 11 19 30 26 30 11z m-3377 -150 c10 -10 14
-21 11 -25 -10 -10 -44 12 -44 28 0 20 13 19 33 -3z m378 -18 c64 -19 129 -51
129 -63 0 -5 -10 -7 -22 -4 -32 8 -168 70 -168 77 0 8 -1 8 61 -10z m3215 -11
c-10 -10 -19 5 -10 18 6 11 8 11 12 0 2 -7 1 -15 -2 -18z m-2628 -18 c90 -26
102 -32 102 -46 0 -26 -183 1 -236 35 -63 42 9 48 134 11z m-1476 -102 c54
-115 63 -143 49 -143 -12 0 -96 168 -107 213 -13 57 15 23 58 -70z m2056 83
c2 -3 1 -9 -3 -15 -8 -14 -55 -14 -75 -1 -13 9 -13 11 0 20 13 9 67 6 78 -4z
m2122 -18 c0 -14 -109 -138 -110 -125 0 17 33 73 63 105 33 34 47 40 47 20z
m-377 -38 c-27 -38 -43 -50 -43 -31 0 14 50 71 62 71 5 0 -3 -18 -19 -40z
m-3385 13 c2 -8 -5 -13 -17 -13 -12 0 -21 6 -21 16 0 18 31 15 38 -3z m393
-48 c54 -36 101 -70 105 -76 12 -20 -5 -20 -49 -1 -41 18 -182 141 -163 142 5
0 53 -29 107 -65z m309 39 c40 -16 49 -27 30 -39 -12 -8 -100 33 -100 46 0 13
25 11 70 -7z m678 -10 c47 -33 11 -46 -53 -20 -19 8 -35 20 -35 25 0 17 63 13
88 -5z m216 -20 c28 -11 19 -42 -13 -49 -39 -8 -77 11 -61 30 6 8 21 16 33 18
12 2 23 5 24 6 1 0 8 -2 17 -5z m2238 -9 c1 -11 -44 -37 -51 -30 -2 3 4 14 14
25 19 21 36 23 37 5z m-3592 -5 c0 -17 142 -117 225 -158 44 -22 121 -52 170
-67 50 -15 107 -32 128 -38 22 -7 39 -16 38 -22 -2 -21 -104 -16 -186 9 -150
47 -395 216 -395 272 0 8 5 14 10 14 6 0 10 -4 10 -10z m392 -27 c86 -38 106
-72 35 -59 -40 7 -139 65 -145 85 -6 18 32 9 110 -26z m483 7 c17 -7 15 -10
-20 -25 -39 -17 -39 -18 -15 -25 14 -4 39 -15 55 -24 17 -9 42 -16 57 -16 33
0 58 -9 58 -21 0 -18 -70 -8 -142 20 -40 15 -81 31 -90 34 -20 7 -23 22 -8 32
6 4 8 16 4 27 -6 19 -3 20 37 13 24 -4 53 -11 64 -15z m678 -7 c-7 -2 -21 -2
-30 0 -10 3 -4 5 12 5 17 0 24 -2 18 -5z m123 -28 c18 -15 18 -15 -10 -13 -16
2 -31 9 -34 16 -5 17 20 15 44 -3z m-583 -12 c-7 -2 -19 -2 -25 0 -7 3 -2 5
12 5 14 0 19 -2 13 -5z m-1126 -35 c63 -44 55 -72 -12 -40 -42 20 -55 39 -38
55 10 10 14 9 50 -15z m3399 -6 c-18 -16 -18 -16 -6 6 6 13 14 21 18 18 3 -4
-2 -14 -12 -24z m-1956 -13 c6 -25 8 -26 163 -44 26 -4 47 -11 47 -17 0 -12
-325 -5 -369 8 -23 7 -24 8 -5 15 10 4 36 8 57 8 36 1 77 28 77 52 0 20 24 3
30 -22z m-1001 -20 c36 -13 37 -32 2 -37 -24 -4 -64 25 -55 39 7 12 15 11 53
-2z m175 -6 c11 -29 -8 -33 -39 -8 l-30 24 31 1 c21 0 34 -6 38 -17z m1356 8
c0 -6 -5 -13 -10 -16 -15 -9 -43 3 -35 15 8 13 45 13 45 1z m-960 -60 c77 -25
95 -35 86 -50 -21 -34 -286 32 -286 71 0 16 122 3 200 -21z m835 -6 c0 -16 -8
-21 -40 -23 -44 -3 -83 17 -71 37 5 7 27 11 59 9 44 -3 52 -6 52 -23z m-1766
-46 c201 -69 351 -141 351 -168 0 -5 -27 -20 -60 -34 -33 -15 -80 -45 -106
-69 -51 -47 -64 -42 -64 23 0 49 -19 99 -37 99 -22 0 -54 -19 -100 -61 -24
-22 -50 -39 -60 -39 -28 0 -120 61 -132 87 -14 30 -14 75 -1 143 12 61 26 84
49 74 9 -3 81 -28 160 -55z m2016 51 c42 -16 19 -30 -48 -30 -69 0 -103 13
-77 30 20 13 91 13 125 0z m-1355 -15 c0 -8 -7 -15 -15 -15 -8 0 -15 7 -15 15
0 8 7 15 15 15 8 0 15 -7 15 -15z m2551 -38 c-16 -16 -26 0 -10 19 9 11 15 12
17 4 2 -6 -1 -17 -7 -23z m-1893 -8 c23 -10 42 -23 42 -28 0 -6 18 -11 39 -11
33 0 40 4 43 23 6 43 112 32 187 -19 20 -13 58 -31 86 -40 83 -27 102 -54 38
-54 -57 0 -311 38 -369 55 -28 8 -57 22 -64 30 -9 11 -35 15 -106 15 -78 0
-94 3 -94 15 0 9 15 22 33 30 38 17 103 11 165 -16z m1576 -3 c-3 -9 -10 -16
-15 -16 -6 0 -5 9 1 21 13 24 24 20 14 -5z m-419 -26 c18 -5 -28 -8 -118 -9
-97 -1 -146 2 -142 9 7 12 214 12 260 0z m-1767 -12 c-5 -15 -48 -24 -48 -10
0 14 12 22 33 22 10 0 17 -5 15 -12z m1295 -10 c39 -20 11 -58 -45 -58 -47 0
-140 34 -164 61 l-18 20 104 -7 c58 -4 113 -11 123 -16z m1701 -3 c-6 -16 -24
-21 -24 -7 0 11 11 22 21 22 5 0 6 -7 3 -15z m-2715 -41 c43 -17 60 -41 35
-51 -33 -13 -191 37 -179 57 10 15 100 12 144 -6z m-268 -24 c36 -11 50 -26
42 -47 -8 -20 -51 -16 -131 11 -86 30 -94 34 -86 48 7 11 120 3 175 -12z m729
-30 c180 -18 250 -33 250 -51 0 -5 -11 -16 -25 -25 -29 -19 -69 -16 -265 17
-171 29 -260 49 -260 60 0 16 43 29 80 24 19 -3 118 -14 220 -25z m2270 -34
c0 -16 -28 -42 -36 -33 -8 7 14 47 26 47 6 0 10 -6 10 -14z m195 -75 c-15 -30
-45 -43 -45 -20 0 14 19 50 39 73 16 18 16 18 19 -2 2 -11 -4 -34 -13 -51z
m-1438 37 c186 -15 226 -25 202 -54 -16 -20 -112 -18 -374 6 -383 36 -483 48
-502 59 -24 15 428 8 674 -11z m2063 14 c0 -12 -58 -98 -76 -112 -40 -34 -18
30 32 89 25 30 44 40 44 23z m-3522 -18 c17 -12 20 -19 12 -29 -19 -23 -81 9
-65 35 9 14 27 13 53 -6z m3172 1 c0 -8 -7 -15 -15 -15 -9 0 -12 6 -9 15 4 8
10 15 15 15 5 0 9 -7 9 -15z m-2955 -25 c4 -6 -7 -10 -25 -10 -18 0 -29 4 -25
10 3 6 15 10 25 10 10 0 22 -4 25 -10z m2781 -85 c-9 -20 -20 -34 -26 -30 -17
10 -11 48 12 85 l23 35 3 -26 c2 -15 -4 -43 -12 -64z m604 77 c0 -18 -33 -52
-51 -52 -24 0 -24 15 1 40 20 20 50 27 50 12z m-3031 -13 c17 -6 31 -17 31
-25 0 -11 -21 -14 -102 -14 -129 0 -171 20 -86 40 50 12 121 11 157 -1z
m-1139 -19 c72 -15 206 -13 224 5 9 9 33 15 64 15 69 0 233 -29 260 -46 28
-18 22 -31 -53 -120 -29 -33 -54 -67 -57 -75 -4 -11 -46 -15 -208 -17 l-203
-4 -71 69 c-39 38 -83 77 -98 87 -49 29 -34 77 29 96 29 8 35 7 113 -10z
m3065 -30 c46 -23 36 -35 -32 -38 -69 -3 -260 12 -270 21 -3 3 -3 14 1 23 5
14 23 15 139 12 91 -2 141 -8 162 -18z m735 7 c0 -18 -27 -53 -35 -46 -7 8 15
59 27 59 4 0 8 -6 8 -13z m-1197 -22 c3 -14 -35 -17 -53 -5 -13 9 -13 11 -1
19 16 10 51 0 54 -14z m-1839 -21 l46 -7 0 -58 c0 -38 -5 -63 -15 -72 -16 -17
-116 -30 -185 -25 -38 2 -46 7 -48 25 -4 25 46 103 80 128 24 16 51 18 122 9z
m1251 -24 c0 -11 -15 -16 -64 -18 -82 -4 -107 5 -66 24 41 18 130 14 130 -6z
m184 -12 c30 -9 33 -13 27 -41 -7 -34 -32 -67 -52 -67 -31 0 -121 100 -109
120 7 12 77 5 134 -12z"/>
<path d="M5070 7482 c0 -14 90 -95 97 -88 4 3 -4 18 -18 32 -32 35 -79 68 -79
56z"/>
<path d="M3953 2328 c-54 -59 -93 -188 -93 -311 0 -72 11 -107 35 -107 20 0
23 8 40 97 8 43 27 117 41 165 25 87 29 168 8 175 -5 2 -20 -7 -31 -19z"/>
<path d="M4259 11785 c-25 -8 -54 -24 -65 -36 -14 -16 -15 -21 -4 -17 8 3 45
15 82 27 37 13 70 27 73 32 9 13 -32 10 -86 -6z"/>
<path d="M4664 11385 c-14 -36 4 -131 34 -186 38 -67 57 -118 87 -232 13 -49
26 -91 28 -94 11 -10 45 18 61 51 33 70 14 156 -71 311 -54 100 -83 139 -116
156 -13 7 -19 6 -23 -6z"/>
<path d="M4254 11089 c-4 -6 -9 -42 -12 -79 l-5 -68 49 -52 c26 -28 60 -59 76
-68 63 -37 12 -43 -94 -11 -45 14 -73 18 -79 12 -17 -17 1 -61 37 -92 43 -38
108 -57 254 -76 63 -8 145 -20 183 -27 91 -15 117 -4 117 52 0 35 -4 43 -32
60 -18 11 -43 20 -55 20 -36 0 -53 11 -53 35 0 27 -15 39 -105 92 -39 23 -109
74 -155 115 -120 103 -117 101 -126 87z"/>
<path d="M4630 11086 c0 -25 48 -249 59 -279 32 -82 53 38 25 138 -28 101 -84
195 -84 141z"/>
<path d="M2888 3601 c-4 -138 5 -347 15 -357 17 -17 22 18 25 201 5 207 0 265
-23 265 -11 0 -14 -24 -17 -109z"/>
<path d="M2786 3295 c-9 -25 -7 -185 3 -185 13 0 21 39 21 110 0 69 -12 106
-24 75z"/>
<path d="M2154 2205 c-10 -42 13 -111 82 -240 75 -143 101 -213 155 -430 69
-279 95 -342 151 -371 41 -21 74 -11 81 24 7 35 -7 152 -22 179 -5 11 -37 44
-71 73 -84 73 -110 132 -185 432 -35 137 -71 261 -80 276 -50 79 -99 104 -111
57z"/>
</g>
</svg>
